<svg xmlns="http://www.w3.org/2000/svg" viewBox="0 0 891 590" width="891" height="590">
	<defs>
		<linearGradient id="grd1" gradientUnits="userSpaceOnUse"  x1="412.297" y1="669.018" x2="412.297" y2="-60.546">
			<stop offset="0" stop-color="#00c1ff"  />
			<stop offset="0.145" stop-color="#0b47ff"  />
			<stop offset="0.5" stop-color="#2e1d81"  />
			<stop offset="1" stop-color="#270e64"  />
		</linearGradient>
		<linearGradient id="grd2" gradientUnits="userSpaceOnUse"  x1="412.297" y1="-324" x2="412.297" y2="665.923">
			<stop offset="0" stop-color="#ffffff" stop-opacity="0.25" />
			<stop offset="1" stop-color="#ffffff" stop-opacity="0.25" />
		</linearGradient>
		<linearGradient id="grd3" gradientUnits="userSpaceOnUse"  x1="412.297" y1="176.071" x2="412.297" y2="665.923">
			<stop offset="0" stop-color="#ffffff" stop-opacity="0.25" />
			<stop offset="1" stop-color="#ffffff" stop-opacity="0.25" />
		</linearGradient>
		<linearGradient id="grd4" gradientUnits="userSpaceOnUse"  x1="412.297" y1="365.59" x2="412.297" y2="665.923">
			<stop offset="0" stop-color="#ffffff" stop-opacity="0.25" />
			<stop offset="1" stop-color="#ffffff" stop-opacity="0.25" />
		</linearGradient>
		<linearGradient id="grd5" gradientUnits="userSpaceOnUse"  x1="898.673" y1="99.33" x2="-74.08" y2="99.33">
			<stop offset="0" stop-color="#faf0ea" stop-opacity="0" />
			<stop offset="0.696" stop-color="#f6e5dd" stop-opacity="0.3" />
			<stop offset="1" stop-color="#f2dcd1" stop-opacity="0" />
		</linearGradient>
		<linearGradient id="grd6" gradientUnits="userSpaceOnUse"  x1="380.516" y1="664.965" x2="380.516" y2="-60.546">
			<stop offset="0" stop-color="#faf0ea" stop-opacity="0" />
			<stop offset="0.781" stop-color="#f6e5dd" stop-opacity="0.3" />
			<stop offset="1" stop-color="#f2dcd1" stop-opacity="0" />
		</linearGradient>
	</defs>
	<style>
		tspan { white-space:pre }
		.shp0 { fill: url(#grd1) } 
		.shp1 { opacity: 0.851;fill: #ffffff } 
		.shp2 { opacity: 0.749;fill: #ffffff } 
		.shp3 { opacity: 0.502;fill: #ffffff } 
		.shp4 { opacity: 0.502;fill: url(#grd2) } 
		.shp5 { opacity: 0.502;fill: url(#grd3) } 
		.shp6 { opacity: 0.502;fill: url(#grd4) } 
		.shp7 { opacity: 0.502;fill: url(#grd5) } 
		.shp8 { opacity: 0.502;fill: url(#grd6) } 
		.shp9 { fill: #1f1c46 } 
		.shp10 { fill: #171332 } 
		.shp11 { fill: #d3dcff } 
	</style>
	<g id="Layer">
		<g id="Layer">
			<path id="Layer" fill-rule="evenodd" class="shp0" d="M-74.08 669.02L-74.08 -60.55L898.67 -60.55L898.67 669.02L-74.08 669.02Z" />
			<g id="Layer" style="opacity: 0.502">
				<path id="Layer" fill-rule="evenodd" class="shp1" d="M735.98 373.67C730.38 373.67 725.85 369.14 725.85 363.54C725.85 357.94 730.38 353.41 735.98 353.41C741.58 353.41 746.11 357.94 746.11 363.54C746.11 369.14 741.58 373.67 735.98 373.67Z" />
				<path id="Layer" fill-rule="evenodd" class="shp2" d="M596.65 633.31C592.93 633.31 589.91 630.29 589.91 626.57C589.91 622.85 592.93 619.83 596.65 619.83C600.37 619.83 603.39 622.85 603.39 626.57C603.39 630.29 600.37 633.31 596.65 633.31Z" />
				<path id="Layer" fill-rule="evenodd" class="shp2" d="M396.64 463.57C392.92 463.57 389.9 460.55 389.9 456.83C389.9 453.11 392.92 450.09 396.64 450.09C400.36 450.09 403.38 453.11 403.38 456.83C403.38 460.55 400.36 463.57 396.64 463.57Z" />
				<path id="Layer" fill-rule="evenodd" class="shp2" d="M-47.87 470.31C-51.59 470.31 -54.61 467.29 -54.61 463.57C-54.61 459.85 -51.59 456.83 -47.87 456.83C-44.14 456.83 -41.13 459.85 -41.13 463.57C-41.13 467.29 -44.14 470.31 -47.87 470.31Z" />
				<path id="Layer" fill-rule="evenodd" class="shp3" d="M795.32 547.53C794.2 547.53 793.29 546.63 793.29 545.51C793.29 544.39 794.2 543.48 795.32 543.48C796.44 543.48 797.34 544.39 797.34 545.51C797.34 546.63 796.44 547.53 795.32 547.53Z" />
				<path id="Layer" fill-rule="evenodd" class="shp3" d="M92.95 521.57C91.83 521.57 90.92 520.67 90.92 519.55C90.92 518.43 91.83 517.52 92.95 517.52C94.07 517.52 94.97 518.43 94.97 519.55C94.97 520.67 94.07 521.57 92.95 521.57Z" />
				<path id="Layer" fill-rule="evenodd" class="shp3" d="M619.03 506.29C617.91 506.29 617 505.38 617 504.26C617 503.14 617.91 502.24 619.03 502.24C620.15 502.24 621.06 503.14 621.06 504.26C621.06 505.38 620.15 506.29 619.03 506.29Z" />
				<path id="Layer" fill-rule="evenodd" class="shp3" d="M875.23 576.72C874.11 576.72 873.2 575.82 873.2 574.7C873.2 573.58 874.11 572.67 875.23 572.67C876.35 572.67 877.26 573.58 877.26 574.7C877.26 575.82 876.35 576.72 875.23 576.72Z" />
				<path id="Layer" fill-rule="evenodd" class="shp3" d="M268.08 628.34C266.96 628.34 266.05 627.43 266.05 626.31C266.05 625.19 266.96 624.29 268.08 624.29C269.2 624.29 270.11 625.19 270.11 626.31C270.11 627.43 269.2 628.34 268.08 628.34Z" />
				<path id="Layer" fill-rule="evenodd" class="shp3" d="M749.48 663.82C747.62 663.82 746.11 662.31 746.11 660.45C746.11 658.59 747.62 657.08 749.48 657.08C751.34 657.08 752.85 658.59 752.85 660.45C752.85 662.31 751.34 663.82 749.48 663.82Z" />
				<path id="Layer" fill-rule="evenodd" class="shp3" d="M161.83 615.76C159.97 615.76 158.46 614.26 158.46 612.39C158.46 610.53 159.97 609.02 161.83 609.02C163.69 609.02 165.2 610.53 165.2 612.39C165.2 614.26 163.69 615.76 161.83 615.76Z" />
				<path id="Layer" fill-rule="evenodd" class="shp3" d="M406.75 601.17C404.89 601.17 403.38 599.66 403.38 597.8C403.38 595.94 404.89 594.43 406.75 594.43C408.61 594.43 410.12 595.94 410.12 597.8C410.12 599.66 408.61 601.17 406.75 601.17Z" />
				<path id="Layer" fill-rule="evenodd" class="shp3" d="M808.82 436.39C806.96 436.39 805.45 434.88 805.45 433.02C805.45 431.16 806.96 429.65 808.82 429.65C810.68 429.65 812.19 431.16 812.19 433.02C812.19 434.88 810.68 436.39 808.82 436.39Z" />
				<path id="Layer" fill-rule="evenodd" class="shp3" d="M75.69 370.28C73.83 370.28 72.32 368.77 72.32 366.91C72.32 365.05 73.83 363.54 75.69 363.54C77.55 363.54 79.06 365.05 79.06 366.91C79.06 368.77 77.55 370.28 75.69 370.28Z" />
				<path id="Layer" fill-rule="evenodd" class="shp3" d="M496.63 377.02C494.77 377.02 493.26 375.51 493.26 373.65C493.26 371.79 494.77 370.28 496.63 370.28C498.49 370.28 500 371.79 500 373.65C500 375.51 498.49 377.02 496.63 377.02Z" />
				<path id="Layer" fill-rule="evenodd" class="shp3" d="M253.75 309.19C251.89 309.19 250.38 307.69 250.38 305.82C250.38 303.96 251.89 302.45 253.75 302.45C255.61 302.45 257.12 303.96 257.12 305.82C257.12 307.69 255.61 309.19 253.75 309.19Z" />
				<path id="Layer" fill-rule="evenodd" class="shp3" d="M273.46 466.94C271.6 466.94 270.09 465.43 270.09 463.57C270.09 461.71 271.6 460.2 273.46 460.2C275.32 460.2 276.83 461.71 276.83 463.57C276.83 465.43 275.32 466.94 273.46 466.94Z" />
				<path id="Layer" fill-rule="evenodd" class="shp3" d="M33.16 663.82C31.3 663.82 29.79 662.31 29.79 660.45C29.79 658.59 31.3 657.08 33.16 657.08C35.02 657.08 36.53 658.59 36.53 660.45C36.53 662.31 35.02 663.82 33.16 663.82Z" />
				<path id="Layer" fill-rule="evenodd" class="shp1" d="M483.13 110.18C477.53 110.18 473 105.65 473 100.05C473 94.46 477.53 89.92 483.13 89.92C488.73 89.92 493.26 94.46 493.26 100.05C493.26 105.65 488.73 110.18 483.13 110.18Z" />
				<path id="Layer" fill-rule="evenodd" class="shp2" d="M818.93 77.06C815.21 77.06 812.19 74.05 812.19 70.32C812.19 66.6 815.21 63.58 818.93 63.58C822.65 63.58 825.67 66.6 825.67 70.32C825.67 74.05 822.65 77.06 818.93 77.06Z" />
				<path id="Layer" fill-rule="evenodd" class="shp2" d="M596.65 -1.01C592.93 -1.01 589.91 -4.03 589.91 -7.75C589.91 -11.47 592.93 -14.49 596.65 -14.49C600.37 -14.49 603.39 -11.47 603.39 -7.75C603.39 -4.03 600.37 -1.01 596.65 -1.01Z" />
				<path id="Layer" fill-rule="evenodd" class="shp2" d="M625.77 227.38C622.05 227.38 619.03 224.36 619.03 220.64C619.03 216.91 622.05 213.9 625.77 213.9C629.49 213.9 632.51 216.91 632.51 220.64C632.51 224.36 629.49 227.38 625.77 227.38Z" />
				<path id="Layer" fill-rule="evenodd" class="shp3" d="M308.62 123.34C307.5 123.34 306.6 122.43 306.6 121.31C306.6 120.19 307.5 119.29 308.62 119.29C309.74 119.29 310.65 120.19 310.65 121.31C310.65 122.43 309.74 123.34 308.62 123.34Z" />
				<path id="Layer" fill-rule="evenodd" class="shp3" d="M875.23 -57.59C874.11 -57.59 873.2 -58.5 873.2 -59.62C873.2 -60.74 874.11 -61.65 875.23 -61.65C876.35 -61.65 877.26 -60.74 877.26 -59.62C877.26 -58.5 876.35 -57.59 875.23 -57.59Z" />
				<path id="Layer" fill-rule="evenodd" class="shp3" d="M268.08 -5.98C266.96 -5.98 266.05 -6.88 266.05 -8C266.05 -9.12 266.96 -10.03 268.08 -10.03C269.2 -10.03 270.11 -9.12 270.11 -8C270.11 -6.88 269.2 -5.98 268.08 -5.98Z" />
				<path id="Layer" fill-rule="evenodd" class="shp2" d="M-14.61 259.18C-18.33 259.18 -21.35 256.17 -21.35 252.44C-21.35 248.72 -18.33 245.7 -14.61 245.7C-10.89 245.7 -7.87 248.72 -7.87 252.44C-7.87 256.17 -10.89 259.18 -14.61 259.18Z" />
				<path id="Layer" fill-rule="evenodd" class="shp2" d="M326.81 283.51C323.09 283.51 320.07 280.49 320.07 276.77C320.07 273.05 323.09 270.03 326.81 270.03C330.53 270.03 333.55 273.05 333.55 276.77C333.55 280.49 330.53 283.51 326.81 283.51Z" />
				<path id="Layer" fill-rule="evenodd" class="shp2" d="M841.51 265.92C837.79 265.92 834.77 262.91 834.77 259.18C834.77 255.46 837.79 252.44 841.51 252.44C845.23 252.44 848.25 255.46 848.25 259.18C848.25 262.91 845.23 265.92 841.51 265.92Z" />
				<path id="Layer" fill-rule="evenodd" class="shp3" d="M712.57 296.99C710.71 296.99 709.2 295.48 709.2 293.62C709.2 291.76 710.71 290.25 712.57 290.25C714.43 290.25 715.94 291.76 715.94 293.62C715.94 295.48 714.43 296.99 712.57 296.99Z" />
				<path id="Layer" fill-rule="evenodd" class="shp3" d="M749.48 29.5C747.62 29.5 746.11 27.99 746.11 26.13C746.11 24.27 747.62 22.76 749.48 22.76C751.34 22.76 752.85 24.27 752.85 26.13C752.85 27.99 751.34 29.5 749.48 29.5Z" />
				<path id="Layer" fill-rule="evenodd" class="shp3" d="M161.83 -18.55C159.97 -18.55 158.46 -20.06 158.46 -21.92C158.46 -23.78 159.97 -25.29 161.83 -25.29C163.69 -25.29 165.2 -23.78 165.2 -21.92C165.2 -20.06 163.69 -18.55 161.83 -18.55Z" />
				<path id="Layer" fill-rule="evenodd" class="shp3" d="M406.75 -33.15C404.89 -33.15 403.38 -34.65 403.38 -36.51C403.38 -38.38 404.89 -39.88 406.75 -39.88C408.61 -39.88 410.12 -38.38 410.12 -36.51C410.12 -34.65 408.61 -33.15 406.75 -33.15Z" />
				<path id="Layer" fill-rule="evenodd" class="shp3" d="M586.54 126.04C584.68 126.04 583.17 124.53 583.17 122.67C583.17 120.81 584.68 119.3 586.54 119.3C588.4 119.3 589.91 120.81 589.91 122.67C589.91 124.53 588.4 126.04 586.54 126.04Z" />
				<path id="Layer" fill-rule="evenodd" class="shp3" d="M770.16 153.68C768.3 153.68 766.79 152.17 766.79 150.31C766.79 148.45 768.3 146.94 770.16 146.94C772.03 146.94 773.53 148.45 773.53 150.31C773.53 152.17 772.03 153.68 770.16 153.68Z" />
				<path id="Layer" fill-rule="evenodd" class="shp3" d="M215.32 179.33C213.46 179.33 211.95 177.82 211.95 175.96C211.95 174.1 213.46 172.59 215.32 172.59C217.18 172.59 218.69 174.1 218.69 175.96C218.69 177.82 217.18 179.33 215.32 179.33Z" />
				<path id="Layer" fill-rule="evenodd" class="shp3" d="M98.33 300.36C96.47 300.36 94.96 298.85 94.96 296.99C94.96 295.13 96.47 293.62 98.33 293.62C100.19 293.62 101.7 295.13 101.7 296.99C101.7 298.85 100.19 300.36 98.33 300.36Z" />
				<path id="Layer" fill-rule="evenodd" class="shp3" d="M372.82 193.09C370.95 193.09 369.45 191.58 369.45 189.72C369.45 187.86 370.95 186.35 372.82 186.35C374.68 186.35 376.19 187.86 376.19 189.72C376.19 191.58 374.68 193.09 372.82 193.09Z" />
				<path id="Layer" fill-rule="evenodd" class="shp3" d="M509.71 290.25C507.85 290.25 506.34 288.74 506.34 286.88C506.34 285.02 507.85 283.51 509.71 283.51C511.58 283.51 513.08 285.02 513.08 286.88C513.08 288.74 511.58 290.25 509.71 290.25Z" />
			</g>
			<path id="Layer" fill-rule="evenodd" class="shp4" d="M898.67 23.22L898.67 665.92L-74.08 665.92L-74.08 -197.41C-63.82 -191.45 -54.28 -184.41 -45.6 -176.43C-40.01 -181.54 -32.57 -184.65 -24.4 -184.65C-7.04 -184.65 7.03 -170.58 7.03 -153.22C60.38 -153.22 103.64 -109.97 103.64 -56.62C103.64 -22.83 86.3 6.89 60.04 24.16C72.55 37.3 80.24 55.07 80.24 74.65C80.24 84.26 78.38 93.44 75.01 101.85C83.13 105.85 90.03 111.94 95.03 119.41C104.33 115.13 114.68 112.74 125.59 112.74C128.39 112.74 131.14 112.9 133.86 113.2C137.07 99.3 141.19 85.74 146.15 72.59C132.03 59.25 123.21 40.34 123.21 19.38C123.21 -14.36 146.05 -42.77 177.11 -51.25C172.43 -62.59 169.85 -75.02 169.85 -88.05C169.85 -141.4 213.11 -184.65 266.46 -184.65C296.23 -184.65 322.85 -171.19 340.57 -150.01C346.28 -155.86 354.25 -159.48 363.06 -159.48C364.16 -159.48 365.25 -159.43 366.31 -159.32C366.31 -159.38 366.31 -159.43 366.31 -159.48C366.31 -212.84 409.56 -256.09 462.92 -256.09C466.28 -256.09 469.59 -255.92 472.86 -255.58C478.62 -262.03 486.99 -266.08 496.31 -266.08C497.5 -266.08 498.67 -266.02 499.82 -265.89C502.77 -298.47 530.15 -324 563.5 -324C598.81 -324 627.44 -295.37 627.44 -260.07C627.44 -239.32 617.56 -220.88 602.24 -209.2C622.05 -196.1 635.12 -173.62 635.12 -148.1C635.12 -135.91 632.14 -124.43 626.88 -114.32C635.39 -108.69 641 -99.04 641 -88.07C641 -82.66 639.64 -77.57 637.23 -73.12C639.66 -71.32 642.08 -69.5 644.46 -67.64C657.62 -80.28 675.49 -88.05 695.17 -88.05C732.99 -88.05 764.11 -59.37 767.97 -22.57C773.46 -23.13 779.03 -23.41 784.66 -23.41C829.06 -23.41 869.32 -5.62 898.67 23.22L898.67 23.22Z" />
			<path id="Layer" fill-rule="evenodd" class="shp5" d="M898.67 328.04L898.67 665.92L-74.08 665.92L-74.08 207.59C-73.43 207.5 -72.76 207.45 -72.08 207.45C-72.02 207.45 -71.97 207.45 -71.92 207.45C-70.22 189.84 -55.38 176.07 -37.32 176.07C-18.12 176.07 -2.56 191.63 -2.56 210.83C-2.56 211.99 -2.62 213.13 -2.73 214.26C-2.67 214.26 -2.62 214.26 -2.56 214.26C27.04 214.26 51.04 238.25 51.04 267.86C51.04 290.85 36.56 310.46 16.22 318.07C16.26 319.19 16.28 320.32 16.28 321.46C16.28 331 14.95 340.23 12.47 348.97C15.52 350.74 18.45 352.72 21.23 354.88C23.87 352.5 27.37 351.06 31.2 351.06C37.81 351.06 43.41 355.35 45.38 361.29C47.22 360.99 49.11 360.83 51.04 360.83C51.94 360.83 52.84 360.87 53.73 360.93C60.79 339.58 80.91 324.17 104.64 324.17C130.62 324.17 152.29 342.66 157.2 367.21C157.54 367.19 157.89 367.19 158.24 367.19C159.31 367.19 160.37 367.26 161.41 367.39C164.14 363.91 168.39 361.67 173.16 361.67C175.31 361.67 177.35 362.12 179.2 362.94C193.29 347.96 213.3 338.6 235.49 338.6C238.16 338.6 240.81 338.74 243.41 339.01C245.24 321.53 260.02 307.91 277.98 307.91C287.33 307.91 295.81 311.6 302.06 317.6C303.19 316.72 304.34 315.86 305.49 315C304.35 312.89 303.7 310.47 303.7 307.9C303.7 302.7 306.36 298.11 310.4 295.44C307.91 290.64 306.49 285.19 306.49 279.4C306.49 267.28 312.7 256.61 322.1 250.39C314.83 244.84 310.14 236.09 310.14 226.23C310.14 209.47 323.73 195.88 340.5 195.88C356.33 195.88 369.34 208 370.74 223.47C371.28 223.41 371.84 223.38 372.4 223.38C376.83 223.38 380.81 225.3 383.54 228.36C385.09 228.2 386.66 228.12 388.26 228.12C413.59 228.12 434.13 248.66 434.13 273.99C434.13 274.02 434.13 274.05 434.13 274.07C434.64 274.02 435.15 273.99 435.67 273.99C439.86 273.99 443.64 275.72 446.35 278.49C454.77 268.44 467.41 262.04 481.55 262.04C506.88 262.04 527.42 282.58 527.42 307.91C527.42 314.1 526.19 320 523.97 325.39C538.72 329.41 549.56 342.9 549.56 358.93C549.56 368.88 545.38 377.86 538.67 384.19C541.03 390.44 542.98 396.87 544.51 403.47C545.8 403.33 547.11 403.26 548.43 403.26C553.61 403.26 558.53 404.39 562.95 406.42C565.32 402.87 568.6 399.98 572.45 398.08C570.85 394.09 569.97 389.73 569.97 385.17C569.97 375.87 573.62 367.43 579.56 361.19C567.09 352.99 558.86 338.88 558.86 322.84C558.86 297.51 579.4 276.97 604.73 276.97C604.73 268.73 611.41 262.04 619.65 262.04C623.53 262.04 627.07 263.52 629.72 265.95C643.48 253.31 661.83 245.59 681.98 245.59C684.91 245.59 687.79 245.75 690.64 246.07C695.26 232.3 708.27 222.38 723.6 222.38C742.79 222.38 758.35 237.94 758.35 257.14C758.35 266.98 754.26 275.87 747.69 282.19C755.01 294 759.23 307.93 759.23 322.84C759.23 331.82 757.7 340.45 754.88 348.47C770.66 351.14 782.82 364.45 783.73 380.76L818.67 389.15C820.19 371.36 835.11 357.38 853.3 357.38C860.21 357.38 866.65 359.4 872.06 362.88C877.04 359.52 882.43 356.73 888.14 354.59C888.75 344.52 892.6 335.32 898.67 328.04L898.67 328.04Z" />
			<path id="Layer" fill-rule="evenodd" class="shp6" d="M898.67 500.84L898.67 601.53L898.67 665.92L-74.08 665.92L-74.08 420.6C-70.42 418.97 -66.37 418.06 -62.11 418.06C-45.88 418.06 -32.72 431.21 -32.72 447.44C-20.43 447.44 -10.46 457.41 -10.46 469.71C-10.46 471.28 -10.62 472.81 -10.93 474.29C-0.69 481.35 7.25 491.5 11.54 503.4C12.71 502.61 13.95 501.92 15.26 501.35C15.15 500.76 15.09 500.16 15.09 499.54C15.09 494.35 19.22 490.13 24.37 489.98C23.6 487.36 23.2 484.6 23.2 481.74C23.2 465.51 36.35 452.35 52.58 452.35C68.21 452.35 80.99 464.55 81.91 479.95C85.57 481.32 89.03 483.11 92.21 485.26C95.68 483.03 99.81 481.74 104.23 481.74C115.88 481.74 125.45 490.69 126.42 502.09L148.8 496.71C149.39 486.27 157.18 477.74 167.28 476.03C165.48 470.89 164.49 465.36 164.49 459.61C164.49 450.06 167.2 441.13 171.89 433.57C167.68 429.52 165.06 423.83 165.06 417.52C165.06 405.22 175.03 395.25 187.32 395.25C197.14 395.25 205.48 401.61 208.44 410.43C210.26 410.23 212.11 410.12 213.98 410.12C226.89 410.12 238.65 415.07 247.46 423.16C249.16 421.61 251.42 420.66 253.91 420.66C259.19 420.66 263.47 424.94 263.47 430.22C279.7 430.22 292.85 443.38 292.85 459.61C292.85 469.88 287.58 478.93 279.59 484.18C283.4 488.17 285.74 493.58 285.74 499.54C285.74 502.46 285.17 505.25 284.15 507.81C286.62 509.03 288.72 510.88 290.24 513.15C293.07 511.85 296.21 511.12 299.53 511.12C300.38 511.12 301.22 511.17 302.05 511.27C303.02 507.04 304.28 502.91 305.79 498.91C301.49 494.85 298.81 489.1 298.81 482.73C298.81 472.46 305.76 463.82 315.2 461.24C313.78 457.79 312.99 454.01 312.99 450.05C312.99 433.82 326.15 420.66 342.38 420.66C351.44 420.66 359.53 424.76 364.93 431.2C366.66 429.42 369.09 428.32 371.77 428.32C372.1 428.32 372.43 428.34 372.76 428.37C372.76 428.35 372.76 428.34 372.76 428.32C372.76 412.09 385.91 398.93 402.14 398.93C403.16 398.93 404.17 398.99 405.16 399.09C406.92 397.13 409.46 395.89 412.3 395.89C412.66 395.89 413.02 395.91 413.37 395.95C414.26 386.04 422.59 378.28 432.73 378.28C443.48 378.28 452.18 386.98 452.18 397.72C452.18 404.04 449.18 409.64 444.52 413.2C450.55 417.18 454.52 424.02 454.52 431.78C454.52 435.49 453.62 438.98 452.02 442.06C454.6 443.77 456.31 446.7 456.31 450.04C456.31 451.69 455.89 453.24 455.16 454.59C455.9 455.14 456.64 455.69 457.36 456.26C461.36 452.41 466.8 450.05 472.79 450.05C484.29 450.05 493.76 458.77 494.93 469.97C496.6 469.8 498.29 469.71 500.01 469.71C514.22 469.71 527.04 475.7 536.06 485.3C537.25 484.78 538.56 484.48 539.93 484.48C542.99 484.48 545.71 485.92 547.46 488.15C548.13 488.06 548.81 488.02 549.5 488.02C549.72 488.02 549.94 488.02 550.16 488.03C553.3 472.31 567.18 460.46 583.83 460.46C599.03 460.46 611.92 470.33 616.44 484.01C617.01 483.97 617.59 483.95 618.17 483.95C619.4 483.95 620.61 484.05 621.79 484.24C623.05 480.43 626.64 477.69 630.87 477.69C633.33 477.69 635.57 478.61 637.26 480.14C639.04 478.75 640.92 477.49 642.88 476.35C641.28 470.75 640.43 464.83 640.43 458.72C640.43 458 640.45 457.28 640.47 456.55C627.44 451.68 618.17 439.12 618.17 424.39C618.17 405.42 633.54 390.05 652.5 390.05C652.54 390.05 652.57 390.05 652.61 390.05C652.54 389.33 652.5 388.6 652.5 387.86C652.5 375.56 662.47 365.59 674.77 365.59C686.34 365.59 695.84 374.41 696.93 385.69C696.97 385.69 697 385.69 697.04 385.69C702.01 385.69 706.09 389.49 706.55 394.34C733.66 395.05 756.6 412.5 765.4 436.74C766.55 436.55 767.74 436.46 768.95 436.46C781.25 436.46 791.21 446.43 791.21 458.72C791.21 459.12 791.2 459.51 791.18 459.91C796.48 462.39 800.15 467.78 800.15 474.02C800.15 475.81 799.85 477.53 799.29 479.13C801.54 478.78 803.83 478.6 806.17 478.6C814.16 478.6 821.66 480.73 828.11 484.46C833.49 478.42 841.33 474.62 850.05 474.62C866.23 474.62 879.36 487.7 879.44 503.86C882.78 501.16 887.03 499.54 891.67 499.54C894.14 499.54 896.5 500 898.67 500.84L898.67 500.84Z" />
			<path id="Layer" fill-rule="evenodd" class="shp7" d="M-74.08 206.41L-74.08 -7.75L898.67 -7.75L898.67 206.41L-74.08 206.41Z" />
			<path id="Layer" fill-rule="evenodd" class="shp8" d="M273.44 -60.55L487.59 -60.55L487.59 664.97L273.44 664.97L273.44 -60.55Z" />
			<path id="Layer" fill-rule="evenodd" class="shp9" d="M-95 407.17L-47.23 287.01L-1.31 331.5L27.19 344.55L85.32 316.21L140.86 347.22L191.12 373.05L223.82 418.59L307.04 389.95L384.56 380.02L415.87 381.43L443.31 354.19L483.7 340.79L521.48 352.09L555.64 356.76L616.83 393.07L647.46 445.7L695.02 472.87L764.17 499.9L916.87 660.22L990.39 668.03L15.04 933.86L-95 407.17Z" />
			<path id="Layer" fill-rule="evenodd" class="shp10" d="M-50.72 395.71L12.21 384.22L59.18 400.38L111.31 426.66L181.49 417.52L238.18 440.07L270.79 469.78L344.7 492.86L532.16 674.28C532.16 674.28 581.99 748.86 562 751.18C502.04 758.13 23.31 733.23 23.31 733.23L-50.72 395.71Z" />
			<path id="Layer" fill-rule="evenodd" class="shp11" d="M277.22 104.26C277.22 45.61 324.77 -1.94 383.42 -1.94C442.07 -1.94 489.62 45.61 489.62 104.26C489.62 162.91 442.07 210.46 383.42 210.46C324.77 210.46 277.22 162.91 277.22 104.26L277.22 104.26Z" />
			<path id="Layer" fill-rule="evenodd" class="shp9" d="M370.91 299.91L367.56 297.99C367.5 297.91 367.43 297.83 367.37 297.75C361.68 295.15 359.42 292.44 359.24 288.95C360.68 292.08 363 293.92 365 294.84C361.34 290.24 358.82 286.63 357.46 284C352.6 284.21 347.37 281.8 346.78 278.32C350.29 281.46 354.47 281.33 356.06 281.1C354.12 276.73 352.89 272.23 352.35 267.63C353.97 274.17 359.26 283.48 368.23 295.55C368.41 295.52 368.55 295.48 368.66 295.42C369.81 294.73 368.22 290.72 368.98 286.32C369.53 292.45 371.04 296.54 373.52 298.58C375.06 298.54 375.18 298.92 377.07 298.82C379.06 298.72 379.4 298.27 381.03 298.19C381.07 298.19 381.11 298.19 381.15 298.19C383.4 295.89 384.48 291.67 384.38 285.52C385.29 288.7 384.88 291.8 385.11 293.43C394.65 280.58 400.28 270.67 402.01 263.7C401.44 268.62 400.12 273.4 398.05 278.06C399.75 278.3 404.2 278.45 407.94 275.1C407.32 278.81 401.75 281.37 396.57 281.15C394.94 284.29 391.78 288.73 387.09 294.49C389.21 293.96 392.79 291.72 394.34 287.11C394.57 291.39 391.57 294.84 382.96 298.94C383.39 299.33 383.83 299.89 384.27 300.65C388.42 297.32 391.71 295.59 394.13 295.46C394.85 301.48 389.44 304.31 386.12 304.48C385.85 305.75 385.35 306.72 384.62 307.39C386.32 315.6 389.04 323.88 381.63 337.38C373.38 352.42 365.45 344.98 366.78 370.31C366.97 373.91 367.88 379.66 369.51 387.57L366.36 387.74C361.53 370.65 359.03 360.53 358.87 357.4C358.29 357.34 357.74 357.3 357.21 357.27C356.62 361.95 355.75 373.79 354.36 388.37L351.14 388.54C352.02 381 352.4 376.21 352.3 374.16C352.17 371.81 349.48 362.76 349.01 357.86C346.05 358.49 343.71 359.35 340.46 359.45C334.45 359.62 331.81 359.18 329.73 358.24C326.25 365.4 319.67 366.03 318.65 369.46C317.97 371.74 319.13 378.61 322.14 390.05L318.29 390.25C313.69 377.76 311.24 369.99 310.96 366.93C306.42 372.46 300.01 380.51 300.5 391.18L296.78 391.38C297.63 375.83 297.32 369.83 298.6 366.76C300.05 363.3 307.15 356.53 306.72 348.37C306.71 348.13 306.7 347.9 306.68 347.66C305.74 346.43 304.86 345.15 304.16 343.83C302.56 344.71 300.62 344.97 298.35 344.6C302.65 339.84 300.18 340.77 304.92 333.49C314.53 318.71 324.56 322.31 356.15 320.65C363.87 320.25 368.75 315.98 370.78 307.86C369.78 307.33 369.09 306.51 368.7 305.39C362.08 305.74 359.57 299.58 360.24 297.23C362.94 297.09 368.06 299.54 369.96 301.4C370.27 300.79 370.58 300.3 370.91 299.91L370.91 299.91ZM371.25 299.54C371.31 299.48 371.36 299.43 371.42 299.38C371.29 299.34 371.15 299.29 371.02 299.24C371.1 299.34 371.18 299.44 371.25 299.54L371.25 299.54Z" />
			<path id="Layer" class="shp9" d="M48.09 492.32C52.48 494.84 49.97 499.24 49.97 499.24L47.13 502.33C44.25 505.21 40.13 508.59 38.33 512.14C36.22 516.29 35.67 522.17 34.17 526.7C34.17 526.7 32.56 531.5 27.76 529.9C22.95 528.3 24.55 523.49 24.55 523.49C25.98 519.22 26.54 513.63 28.5 509.68C31.23 504.17 35.66 499.47 39.96 495.17L41.17 494.21C41.17 494.21 43.69 489.81 48.09 492.32L48.09 492.32Z" />
		</g>
	</g>
</svg>